<?xml version="1.0" standalone="no"?><!DOCTYPE svg PUBLIC "-//W3C//DTD SVG 1.1//EN" "http://www.w3.org/Graphics/SVG/1.1/DTD/svg11.dtd"><svg t="1654511639307" class="icon" viewBox="0 0 1024 1024" version="1.1" xmlns="http://www.w3.org/2000/svg" p-id="11163" xmlns:xlink="http://www.w3.org/1999/xlink" width="150" height="150"><defs><style type="text/css"></style></defs><path d="M837.290667 204.373333a757.248 757.248 0 0 0-191.061334-61.098666 2.858667 2.858667 0 0 0-3.072 1.493333c-8.277333 15.146667-17.408 34.858667-23.808 50.389333a693.461333 693.461333 0 0 0-214.613333 0c-6.4-15.872-15.829333-35.242667-24.106667-50.346666a2.986667 2.986667 0 0 0-3.072-1.536A755.2 755.2 0 0 0 186.453333 204.373333a2.773333 2.773333 0 0 0-1.28 1.109334C63.573333 392.874667 30.208 575.701333 46.549333 756.224c0.085333 0.853333 0.554667 1.706667 1.237334 2.261333a769.578667 769.578667 0 0 0 234.368 122.154667 2.986667 2.986667 0 0 0 3.285333-1.109333c18.048-25.429333 34.133333-52.224 47.957333-80.426667a3.114667 3.114667 0 0 0-1.621333-4.266667 506.325333 506.325333 0 0 1-73.216-35.968 3.157333 3.157333 0 0 1-0.298667-5.12c4.906667-3.84 9.813333-7.765333 14.506667-11.776a2.816 2.816 0 0 1 3.072-0.426666c153.6 72.32 319.914667 72.32 471.722667 0a2.816 2.816 0 0 1 3.072 0.426666c4.693333 3.968 9.642667 7.936 14.592 11.776 1.706667 1.28 1.578667 4.010667-0.256 5.12-23.381333 14.08-47.701333 26.026667-73.258667 35.925334a3.114667 3.114667 0 0 0-1.621333 4.309333c14.08 28.16 30.208 54.954667 47.914666 80.384a2.944 2.944 0 0 0 3.328 1.152 766.976 766.976 0 0 0 234.752-122.154667 3.157333 3.157333 0 0 0 1.194667-2.218666c19.584-208.725333-32.768-390.016-138.794667-550.741334a2.389333 2.389333 0 0 0-1.194666-1.152zM356.352 646.314667c-46.250667 0-84.352-43.776-84.352-97.536s37.333333-97.536 84.352-97.536c47.36 0 85.077333 44.16 84.352 97.536 0 53.76-37.376 97.536-84.352 97.536z m311.893333 0c-46.250667 0-84.352-43.776-84.352-97.536s37.376-97.536 84.352-97.536c47.36 0 85.077333 44.16 84.352 97.536 0 53.76-36.992 97.536-84.352 97.536z" fill="#000000" p-id="11164"></path></svg>