<?xml version="1.0" standalone="no"?><!DOCTYPE svg PUBLIC "-//W3C//DTD SVG 1.1//EN" "http://www.w3.org/Graphics/SVG/1.1/DTD/svg11.dtd"><svg t="1647438773447" class="icon" viewBox="0 0 1024 1024" version="1.1" xmlns="http://www.w3.org/2000/svg" p-id="4189" xmlns:xlink="http://www.w3.org/1999/xlink" width="200" height="200"><defs><style type="text/css"></style></defs><path d="M512 0c282.763636 0 512 229.236364 512 512s-229.236364 512-512 512S0 794.763636 0 512 229.236364 0 512 0" fill="#2DAAE1" p-id="4190"></path><path d="M802.164364 332.008727a237.707636 237.707636 0 0 1-68.421819 18.757818A119.389091 119.389091 0 0 0 786.152727 284.858182a237.847273 237.847273 0 0 1-75.589818 28.858182 119.016727 119.016727 0 0 0-202.845091 108.590545 338.013091 338.013091 0 0 1-245.387636-124.369454 118.970182 118.970182 0 0 0 36.817454 158.906181 118.504727 118.504727 0 0 1-53.899636-14.848v1.489455c0 57.716364 41.006545 105.797818 95.464727 116.736a118.411636 118.411636 0 0 1-53.76 2.094545 119.156364 119.156364 0 0 0 111.197091 82.664728 238.778182 238.778182 0 0 1-176.267636 49.245091 336.896 336.896 0 0 0 182.458182 53.527272c218.996364 0 338.757818-181.387636 338.757818-338.711272 0-5.12-0.139636-10.24-0.372364-15.36a242.548364 242.548364 0 0 0 59.485091-61.719273" fill="#FFFFFF" p-id="4191"></path></svg>